#!OML:ASF X:\für Bonn\!DataBase\2005_08_11_Bastian_Final\c3d\Bastian.ASF
:FULLY-SPECIFIED
:DEGREES
106
root 0.577179 16.5678 -9.78245 130.741 -1.00988 -188.457
lowerback 38.9018 -2.35039 -3.19382
upperback 20.7069 5.82548 -4.60993
thorax 4.3756 7.43629 -4.574
lowerneck 2.18086 -7.22586 -7.18641
upperneck 5.83538 -10.5715 9.93575
head 2.27973 -5.36049 3.92421
rclavicle -1.33683e-014 5.92378e-014
rhumerus 9.68112 29.8786 -88.1622
rradius 114.679
rwrist 0.679202
rhand -24.8749 5.27534
rfingers 7.12502
rthumb 1.6324 -24.6982
lclavicle -1.33683e-014 5.92378e-014
lhumerus 15.9506 -46.0486 78.5645
lradius 115.767
lwrist 40.774
lhand -18.695 -17.5005
lfingers 7.12502
lthumb 7.59954 12.343
rfemur 28.303 2.83489 20.9145
rtibia 38.8863
rfoot -190.621 -181.09
rtoes 7.52388
lfemur -63.9849 16.0502 -12.4523
ltibia 101.834
lfoot 14.0404 -11.6495
ltoes -36.3356
107
root 0.545206 16.6201 -9.89962 130.298 -0.475674 -189.449
lowerback 38.9012 -1.9648 -3.77174
upperback 20.8949 6.34076 -5.20575
thorax 4.69558 7.7912 -5.01425
lowerneck 2.43888 -7.07446 -7.09561
upperneck 6.1161 -10.3905 9.61151
head 2.28351 -5.28167 3.82645
rclavicle 6.76365e-014 -1.51474e-013
rhumerus 9.75972 30.3388 -88.1777
rradius 114.548
rwrist 0.185282
rhand -24.4197 4.93764
rfingers 7.12502
rthumb 2.07202 -25.032
lclavicle 6.76365e-014 -1.51474e-013
lhumerus 16.7014 -45.4697 77.5524
lradius 115.765
lwrist 39.7133
lhand -18.6233 -16.7798
lfingers 7.12502
lthumb 7.66877 13.0612
rfemur 29.4741 3.89841 20.5328
rtibia 38.3129
rfoot -190.716 -180.993
rtoes 7.37707
lfemur -65.4423 15.166 -11.7311
ltibia 95.1175
lfoot 14.8575 -11.813
ltoes -36.1595
108
root 0.51566 16.6714 -10.0153 129.913 0.0623771 -190.419
lowerback 38.8219 -1.58409 -4.33457
upperback 21.0376 6.82569 -5.77736
thorax 4.99092 8.11378 -5.42695
lowerneck 2.76013 -6.88944 -7.11968
upperneck 6.43929 -10.1755 9.28408
head 2.29317 -5.19138 3.74835
rclavicle -1.19271e-015 1.94809e-014
rhumerus 9.74337 30.8054 -88.2496
rradius 114.392
rwrist -0.119032
rhand -24.0436 4.60068
rfingers 7.12502
rthumb 2.43524 -25.3652
lclavicle -1.19271e-015 1.94809e-014
lhumerus 17.3117 -44.8006 76.6548
lradius 115.68
lwrist 38.61
lhand -18.5298 -16.1771
lfingers 7.12502
lthumb 7.75901 13.6605
rfemur 30.5911 4.92994 20.174
rtibia 37.6269
rfoot -190.739 -180.906
rtoes 6.98943
lfemur -66.2445 14.3966 -10.7971
ltibia 87.6412
lfoot 15.3713 -11.8819
ltoes -35.2116
109
root 0.484171 16.7101 -10.135 129.589 0.621921 -191.352
lowerback 38.7029 -1.22025 -4.8173
upperback 21.1214 7.28463 -6.34591
thorax 5.23634 8.41529 -5.87513
lowerneck 3.09157 -6.69581 -7.18835
upperneck 6.83039 -9.95875 8.93009
head 2.32295 -5.10371 3.66795
rclavicle -2.57426e-014 5.48646e-014
rhumerus 9.53614 31.1713 -88.5076
rradius 114.198
rwrist -0.204145
rhand -23.6977 4.39415
rfingers 7.12502
rthumb 2.76933 -25.5676
lclavicle -2.57426e-014 5.48646e-014
lhumerus 17.8264 -44.1059 75.7906
lradius 115.54
lwrist 37.6353
lhand -18.3934 -15.7152
lfingers 7.12502
lthumb 7.89068 14.1176
rfemur 31.6945 5.89721 19.8008
rtibia 36.7458
rfoot -190.612 -180.753
rtoes 6.72399
lfemur -66.4776 13.7767 -9.79398
ltibia 79.667
lfoot 14.5252 -11.9108
ltoes -39.2873
110
root 0.454311 16.7514 -10.2485 129.26 1.18102 -192.229
lowerback 38.5874 -0.896127 -5.24423
upperback 21.1936 7.71565 -6.89991
thorax 5.47189 8.70824 -6.33021
lowerneck 3.31029 -6.4836 -7.35155
upperneck 7.16877 -9.68879 8.27793
head 2.61264 -5.01687 3.88627
rclavicle 5.50634e-014 -1.1609e-013
rhumerus 9.3224 31.4628 -88.7855
rradius 113.906
rwrist -0.095515
rhand -23.4533 4.30338
rfingers 7.12502
rthumb 3.00534 -25.6552
lclavicle 5.50634e-014 -1.1609e-013
lhumerus 18.3354 -43.3763 74.9541
lradius 115.305
lwrist 36.7877
lhand -18.1792 -15.45
lfingers 7.12502
lthumb 8.0974 14.3748
rfemur 32.8277 6.82221 19.4762
rtibia 35.6974
rfoot -190.381 -180.574
rtoes 6.5738
lfemur -66.0408 13.0262 -8.32056
ltibia 71.284
lfoot 13.9832 -10.9233
ltoes -40.7426
111
root 0.435855 16.8214 -10.3317 128.934 1.83013 -193.026
lowerback 38.4736 -0.592274 -5.59388
upperback 21.2456 8.11834 -7.38757
thorax 5.6792 8.97612 -6.75086
lowerneck 3.4552 -6.25023 -7.61112
upperneck 7.9664 -9.46861 8.16863
head 2.54526 -4.90793 3.51844
rclavicle -9.93923e-016 -1.11319e-014
rhumerus 9.04998 31.7924 -89.0113
rradius 113.628
rwrist 0.195329
rhand -23.2427 4.27968
rfingers 7.12502
rthumb 3.20869 -25.6759
lclavicle -9.93923e-016 -1.11319e-014
lhumerus 18.7255 -42.5746 74.2549
lradius 115.085
lwrist 36.0169
lhand -17.9835 -15.2256
lfingers 7.12502
lthumb 8.28623 14.5918
rfemur 33.9188 7.62792 19.2166
rtibia 34.4566
rfoot -189.941 -180.33
rtoes 6.20501
lfemur -65.0218 12.0565 -6.12367
ltibia 62.8209
lfoot 13.1295 -8.60303
ltoes -40.223
112
root 0.420047 16.8926 -10.4025 128.587 2.53957 -193.701
lowerback 38.3841 -0.343269 -5.78573
upperback 21.2909 8.48472 -7.81587
thorax 5.86761 9.23032 -7.18475
lowerneck 3.54316 -5.99219 -8.16301
upperneck 8.69811 -9.19915 7.84621
head 2.73756 -4.81158 3.50954
rclavicle -5.66536e-014 8.5875e-014
rhumerus 8.71337 32.1097 -89.1511
rradius 113.286
rwrist 0.632641
rhand -23.1426 4.42319
rfingers 7.12502
rthumb 3.30536 -25.5309
lclavicle -5.66536e-014 8.5875e-014
lhumerus 19.0577 -41.763 73.6524
lradius 114.871
lwrist 35.3724
lhand -17.8078 -15.0676
lfingers 7.12502
lthumb 8.45579 14.7431
rfemur 35.013 8.30465 19.0378
rtibia 33.0605
rfoot -189.371 -179.99
rtoes 6.02628
lfemur -63.4915 10.6936 -3.22839
ltibia 54.4839
lfoot 10.8424 -4.95832
ltoes -38.0569
113
root 0.402901 16.9512 -10.4762 128.193 3.36244 -194.275
lowerback 38.3279 -0.121438 -5.83895
upperback 21.3404 8.84335 -8.17179
thorax 6.04746 9.48293 -7.61507
lowerneck 3.51421 -5.70398 -8.98205
upperneck 9.56865 -8.9051 7.59922
head 3.00323 -4.71587 3.56122
rclavicle 2.94201e-014 1.07344e-013
rhumerus 8.32708 32.4091 -89.223
rradius 112.879
rwrist 1.29347
rhand -23.0906 4.67289
rfingers 7.12502
rthumb 3.35564 -25.2804
lclavicle 2.94201e-014 1.07344e-013
lhumerus 19.2494 -40.9245 73.2049
lradius 114.697
lwrist 34.7818
lhand -17.6576 -14.9957
lfingers 7.12502
lthumb 8.60074 14.8091
rfemur 36.1353 8.85507 18.9264
rtibia 31.6046
rfoot -188.78 -179.569
rtoes 5.63995
lfemur -61.6106 8.74389 0.508316
ltibia 46.6861
lfoot 7.18234 -0.375028
ltoes -37.1178
114
root 0.380835 17.0008 -10.5533 127.911 4.32112 -194.745
lowerback 38.178 0.0459983 -5.65398
upperback 21.3638 9.14056 -8.45973
thorax 6.21618 9.68993 -8.0783
lowerneck 3.5591 -5.37324 -10.0761
upperneck 10.4434 -8.57239 7.39528
head 3.26796 -4.62263 3.67553
rclavicle -9.93923e-015 -4.92986e-014
rhumerus 7.90252 32.7007 -89.1748
rradius 112.501
rwrist 2.02888
rhand -23.0596 5.00054
rfingers 7.12502
rthumb 3.38551 -24.9523
lclavicle -9.93923e-015 -4.92986e-014
lhumerus 19.3132 -40.0441 72.9062
lradius 114.529
lwrist 34.2618
lhand -17.5642 -14.949
lfingers 7.12502
lthumb 8.69086 14.8521
rfemur 36.959 9.16732 18.6861
rtibia 30.3629
rfoot -188.324 -178.867
rtoes 5.38832
lfemur -59.6429 5.43301 5.82269
ltibia 39.5673
lfoot 1.5248 6.11171
ltoes -37.1217
115
root 0.35464 17.0394 -10.6383 127.575 5.35237 -195.134
lowerback 38.034 0.136038 -5.28925
upperback 21.4218 9.39065 -8.70112
thorax 6.42122 9.88825 -8.57008
lowerneck 3.8065 -4.99671 -11.3443
upperneck 11.1489 -8.19892 7.24634
head 3.45309 -4.528 3.84655
rclavicle 6.4605e-014 -1.4392e-013
rhumerus 7.49554 32.9282 -89.1071
rradius 112.124
rwrist 2.80562
rhand -22.8433 5.39044
rfingers 7.12502
rthumb 3.59442 -24.559
lclavicle 6.4605e-014 -1.4392e-013
lhumerus 19.3309 -39.1406 72.6951
lradius 114.385
lwrist 33.7953
lhand -17.5991 -14.9639
lfingers 7.12502
lthumb 8.65723 14.8386
rfemur 37.656 9.28967 18.345
rtibia 29.4193
rfoot -188.048 -177.958
rtoes 5.54569
lfemur -57.7008 -2.5421 15.7284
ltibia 33.4484
lfoot -8.15433 18.0912
ltoes -31.4373
116
root 0.316943 17.0555 -10.7465 127.171 6.41257 -195.502
lowerback 37.9489 0.180789 -4.84815
upperback 21.4703 9.58896 -8.93904
thorax 6.59651 10.0676 -9.09564
lowerneck 4.15304 -4.58791 -12.3811
upperneck 11.7637 -7.78049 6.91641
head 3.57263 -4.41986 3.931
rclavicle 5.98342e-014 -6.83819e-014
rhumerus 7.05941 33.162 -89.0987
rradius 111.624
rwrist 3.63233
rhand -22.6303 5.86347
rfingers 7.12502
rthumb 3.80011 -24.0824
lclavicle 5.98342e-014 -6.83819e-014
lhumerus 19.2643 -38.21 72.5445
lradius 114.227
lwrist 33.3481
lhand -17.7835 -14.9708
lfingers 7.12502
lthumb 8.47923 14.8389
rfemur 38.295 9.30946 17.8649
rtibia 28.7929
rfoot -188.037 -176.916
rtoes 5.6239
lfemur -56.4519 -0.695636 17.0778
ltibia 28.5462
lfoot -12.2855 18.855
ltoes -28.3321
117
root 0.274323 17.0628 -10.861 126.698 7.53675 -195.796
lowerback 37.8806 0.188176 -4.31739
upperback 21.5564 9.76986 -9.12134
thorax 6.80897 10.2472 -9.60177
lowerneck 4.50013 -4.2449 -13.0351
upperneck 12.3258 -7.40751 6.10638
head 3.65116 -4.34183 3.8021
rclavicle 6.06293e-014 -1.05753e-013
rhumerus 6.74058 33.3528 -88.9623
rradius 111.076
rwrist 4.37475
rhand -22.3277 6.28828
rfingers 7.12502
rthumb 4.09231 -23.6522
lclavicle 6.06293e-014 -1.05753e-013
lhumerus 19.1853 -37.2358 72.4438
lradius 114.022
lwrist 32.9887
lhand -18.0893 -15.0692
lfingers 7.12502
lthumb 8.18419 14.7523
rfemur 38.9052 9.36582 17.5538
rtibia 28.431
rfoot -188.209 -176.02
rtoes 5.68151
lfemur -55.4631 0.855836 18.2834
ltibia 25.0727
lfoot -16.2261 19.9359
ltoes -26.5109
